<svg version="1.1" xmlns="http://www.w3.org/2000/svg" viewBox="-276.7 -3675.8999999999996 6541.9 4005.6"><desc>Created with Snap</desc><defs></defs><g><rect x="-276.7" y="-3675.8999999999996" width="6541.9" height="4005.6" fill="#71748f" style=""></rect><g><g transform="matrix(0.5,0,0,-0.5,0,0)"><path d="M426 -45Q61 -45 61 604Q61 1043 230 1414Q413 1819 707 1819Q821 1819 922 1737Q940 1717 940 1696Q940 1647 907 1647Q899 1647 860 1668Q769 1718 675 1718Q552 1718 429 1557Q306 1397 230 1145Q154 893 154 647Q154 172 330 72Q372 49 443 49Q514 49 592 84Q807 183 953 502Q1045 703 1093 930Q1141 1157 1141 1369Q1141 1582 1062 1744Q1005 1858 914 1884Q868 1896 826 1904Q785 1912 756 1922Q727 1932 727 1952Q727 1990 778 1997Q1179 1997 1228 1472Q1237 1383 1237 1280Q1237 1060 1177 825Q1118 591 1008 392Q899 193 749 74Q600 -45 426 -45ZM1352 4L1398 248Q1434 435 1447 513Q1460 592 1476 686Q1493 781 1544 958Q1542 963 1542 967L1542 977Q1542 1025 1579 1046Q1590 1053 1602 1053Q1645 1053 1645 991Q1645 955 1616 861Q1587 768 1571 688Q1585 711 1605 746Q1626 781 1670 848Q1715 915 1782 975Q1850 1036 1920 1036Q1991 1036 2028 998Q2042 985 2042 965Q2042 945 2024 929Q2006 913 1987 913Q1968 913 1950 923Q1932 934 1910 934Q1888 934 1840 898Q1649 759 1525 347Q1492 237 1485 195Q1478 154 1473 128Q1443 -33 1381 -33Q1352 -33 1352 4ZM2673 942L2771 1372Q2781 1418 2819 1609Q2858 1801 2876 1876L2880 1901Q2880 1927 2897 1945Q2915 1964 2934 1964Q2978 1964 2978 1917L2978 1908Q2978 1859 2907 1535Q2837 1211 2816 1079Q2795 947 2736 710Q2678 473 2663 390Q2648 307 2634 249Q2620 192 2620 135Q2620 78 2638 20Q2635 -4 2616 -21Q2597 -37 2581 -37Q2555 -37 2536 24Q2517 86 2517 127Q2517 169 2529 225Q2488 101 2423 41Q2358 -18 2252 -18Q2147 -18 2102 68Q2058 155 2058 238Q2058 544 2174 756Q2228 854 2269 901Q2311 948 2376 991Q2441 1034 2536 1034Q2631 1034 2673 942ZM2599 620Q2615 702 2619 724Q2624 747 2624 798Q2624 850 2594 899Q2564 948 2509 948Q2411 948 2329 824Q2248 701 2199 536Q2151 372 2151 259Q2151 146 2215 98Q2236 82 2271 82Q2342 82 2423 203Q2504 324 2544 431Q2584 539 2599 620ZM3414 168Q3449 168 3449 131Q3449 88 3344 34Q3239 -20 3169 -20Q3099 -20 3064 3Q3029 26 3007 67Q2964 147 2964 260Q2964 460 3024 637Q3084 814 3184 930Q3284 1047 3400 1047Q3462 1047 3497 995Q3533 944 3533 874Q3533 743 3464 652Q3396 561 3296 503Q3196 445 3066 393L3062 246Q3062 74 3166 74Q3222 74 3283 106Q3345 139 3372 153Q3399 168 3414 168ZM3439 870Q3439 950 3372 950Q3312 950 3231 842Q3150 734 3097 557Q3084 514 3082 492Q3122 514 3164 534Q3206 554 3246 576Q3338 627 3388 695Q3439 764 3439 870ZM3642 4L3688 248Q3724 435 3737 513Q3750 592 3766 686Q3783 781 3834 958Q3832 963 3832 967L3832 977Q3832 1025 3869 1046Q3880 1053 3892 1053Q3935 1053 3935 991Q3935 955 3906 861Q3877 768 3861 688Q3875 711 3895 746Q3916 781 3960 848Q4005 915 4072 975Q4140 1036 4210 1036Q4281 1036 4318 998Q4332 985 4332 965Q4332 945 4314 929Q4296 913 4277 913Q4258 913 4240 923Q4222 934 4200 934Q4178 934 4130 898Q3939 759 3815 347Q3782 237 3775 195Q3768 154 3763 128Q3733 -33 3671 -33Q3642 -33 3642 4ZM5405 809Q5231 865 5231 909Q5231 934 5248 946Q5265 958 5284 958Q5303 958 5321 953Q5339 948 5357 941Q5375 934 5393 925Q5411 917 5426 911L5631 1872Q5540 1844 5497 1767Q5479 1743 5450 1743Q5413 1743 5413 1778Q5413 1785 5418 1800Q5490 1937 5661 1970Q5683 2011 5712 2011Q5742 2011 5747 1980L5755 1980Q5984 1980 6114 1827Q6245 1675 6245 1487Q6245 1171 6084 980Q5910 772 5594 772Q5545 772 5491 786Q5468 671 5418 442Q5369 213 5340 47Q5335 22 5317 6Q5299 -10 5283 -10Q5250 -10 5246 33Q5280 230 5332 470Q5385 711 5405 809ZM5727 1888L5512 881Q5560 868 5657 868Q5755 868 5850 914Q5946 960 6015 1038Q6159 1204 6159 1438Q6159 1620 6043 1754Q5927 1888 5727 1888ZM6315 4L6361 248Q6397 435 6410 513Q6423 592 6439 686Q6456 781 6507 958Q6505 963 6505 967L6505 977Q6505 1025 6542 1046Q6553 1053 6565 1053Q6608 1053 6608 991Q6608 955 6579 861Q6550 768 6534 688Q6548 711 6568 746Q6589 781 6633 848Q6678 915 6745 975Q6813 1036 6883 1036Q6954 1036 6991 998Q7005 985 7005 965Q7005 945 6987 929Q6969 913 6950 913Q6931 913 6913 923Q6895 934 6873 934Q6851 934 6803 898Q6612 759 6488 347Q6455 237 6448 195Q6441 154 6436 128Q6406 -33 6344 -33Q6315 -33 6315 4ZM7490 1034Q7679 1034 7679 748Q7679 525 7556 269Q7473 97 7356 21Q7296 -18 7232 -18Q7119 -18 7070 72Q7021 162 7021 266Q7021 452 7083 627Q7146 802 7253 918Q7361 1034 7490 1034ZM7222 703Q7114 487 7114 281Q7114 138 7193 89Q7217 74 7248 74Q7312 74 7391 185Q7470 296 7524 458Q7578 621 7578 737Q7578 854 7564 885Q7551 916 7533 928Q7516 940 7475 940Q7435 940 7387 908Q7294 848 7222 703ZM7902 258Q7902 76 8035 76Q8101 76 8159 140Q8181 165 8200 185Q8219 205 8239 205Q8279 205 8279 170Q8279 106 8197 40Q8115 -25 8011 -25Q7908 -25 7854 51Q7801 128 7801 224Q7801 403 7867 595Q7934 787 8042 917Q8151 1047 8272 1047Q8360 1047 8388 984Q8395 967 8404 940Q8414 914 8426 907Q8434 894 8434 875Q8434 857 8417 841Q8400 825 8379 825Q8336 825 8324 888Q8312 952 8257 952Q8180 952 8097 835Q8015 718 7958 551Q7902 384 7902 258ZM8952 168Q8987 168 8987 131Q8987 88 8882 34Q8777 -20 8707 -20Q8637 -20 8602 3Q8567 26 8545 67Q8502 147 8502 260Q8502 460 8562 637Q8622 814 8722 930Q8822 1047 8938 1047Q9000 1047 9035 995Q9071 944 9071 874Q9071 743 9002 652Q8934 561 8834 503Q8734 445 8604 393L8600 246Q8600 74 8704 74Q8760 74 8821 106Q8883 139 8910 153Q8937 168 8952 168ZM8977 870Q8977 950 8910 950Q8850 950 8769 842Q8688 734 8635 557Q8622 514 8620 492Q8660 514 8702 534Q8744 554 8784 576Q8876 627 8926 695Q8977 764 8977 870ZM9485 956Q9385 956 9385 840Q9385 763 9421 681Q9457 599 9482 550Q9579 357 9579 254Q9579 152 9517 80Q9455 8 9338 -6L9325 -6Q9212 -6 9161 133Q9159 138 9159 142L9159 152Q9159 173 9172 186Q9185 200 9200 203L9211 203Q9231 203 9243 187Q9256 171 9267 151Q9278 132 9291 116Q9304 100 9336 100Q9404 100 9444 142Q9485 185 9485 237Q9485 289 9470 334Q9445 411 9384 526Q9282 715 9282 820Q9282 925 9335 992Q9388 1059 9485 1059Q9545 1059 9588 1034Q9669 987 9669 928Q9669 870 9620 870Q9602 870 9590 883Q9579 897 9566 913Q9531 956 9485 956ZM10118 956Q10018 956 10018 840Q10018 763 10054 681Q10090 599 10115 550Q10212 357 10212 254Q10212 152 10150 80Q10088 8 9971 -6L9958 -6Q9845 -6 9794 133Q9792 138 9792 142L9792 152Q9792 173 9805 186Q9818 200 9833 203L9844 203Q9864 203 9876 187Q9889 171 9900 151Q9911 132 9924 116Q9937 100 9969 100Q10037 100 10077 142Q10118 185 10118 237Q10118 289 10103 334Q10078 411 10017 526Q9915 715 9915 820Q9915 925 9968 992Q10021 1059 10118 1059Q10178 1059 10221 1034Q10302 987 10302 928Q10302 870 10253 870Q10235 870 10223 883Q10212 897 10199 913Q10164 956 10118 956ZM10894 1034Q11083 1034 11083 748Q11083 525 10960 269Q10877 97 10760 21Q10700 -18 10636 -18Q10523 -18 10474 72Q10425 162 10425 266Q10425 452 10487 627Q10550 802 10657 918Q10765 1034 10894 1034ZM10626 703Q10518 487 10518 281Q10518 138 10597 89Q10621 74 10652 74Q10716 74 10795 185Q10874 296 10928 458Q10982 621 10982 737Q10982 854 10968 885Q10955 916 10937 928Q10920 940 10879 940Q10839 940 10791 908Q10698 848 10626 703ZM11226 4L11272 248Q11308 435 11321 513Q11334 592 11350 686Q11367 781 11418 958Q11416 963 11416 967L11416 977Q11416 1025 11453 1046Q11464 1053 11476 1053Q11519 1053 11519 991Q11519 955 11490 861Q11461 768 11445 688Q11459 711 11479 746Q11500 781 11544 848Q11589 915 11656 975Q11724 1036 11794 1036Q11865 1036 11902 998Q11916 985 11916 965Q11916 945 11898 929Q11880 913 11861 913Q11842 913 11824 923Q11806 934 11784 934Q11762 934 11714 898Q11523 759 11399 347Q11366 237 11359 195Q11352 154 11347 128Q11317 -33 11255 -33Q11226 -33 11226 4Z" fill="#ffffff" style=""></path></g></g><g transform="matrix(2,0,0,2,1774.75,-1357.7)"><g transform="matrix(0.5,0,0,-0.5,0,0)"><path d="M426 -45Q61 -45 61 604Q61 1043 230 1414Q413 1819 707 1819Q821 1819 922 1737Q940 1717 940 1696Q940 1647 907 1647Q899 1647 860 1668Q769 1718 675 1718Q552 1718 429 1557Q306 1397 230 1145Q154 893 154 647Q154 172 330 72Q372 49 443 49Q514 49 592 84Q807 183 953 502Q1045 703 1093 930Q1141 1157 1141 1369Q1141 1582 1062 1744Q1005 1858 914 1884Q868 1896 826 1904Q785 1912 756 1922Q727 1932 727 1952Q727 1990 778 1997Q1179 1997 1228 1472Q1237 1383 1237 1280Q1237 1060 1177 825Q1118 591 1008 392Q899 193 749 74Q600 -45 426 -45ZM1538 809Q1364 865 1364 909Q1364 934 1381 946Q1398 958 1417 958Q1436 958 1454 953Q1472 948 1490 941Q1508 934 1526 925Q1544 917 1559 911L1764 1872Q1673 1844 1630 1767Q1612 1743 1583 1743Q1546 1743 1546 1778Q1546 1785 1551 1800Q1623 1937 1794 1970Q1816 2011 1845 2011Q1875 2011 1880 1980L1888 1980Q2117 1980 2247 1827Q2378 1675 2378 1487Q2378 1171 2217 980Q2043 772 1727 772Q1678 772 1624 786Q1601 671 1551 442Q1502 213 1473 47Q1468 22 1450 6Q1432 -10 1416 -10Q1383 -10 1379 33Q1413 230 1465 470Q1518 711 1538 809ZM1860 1888L1645 881Q1693 868 1790 868Q1888 868 1983 914Q2079 960 2148 1038Q2292 1204 2292 1438Q2292 1620 2176 1754Q2060 1888 1860 1888Z" fill="#ffffff" style=""></path></g></g></g></svg>